<?xml version="1.0" encoding="utf-8"?>
<!-- Generated by IcoMoon.io -->
<!DOCTYPE svg PUBLIC "-//W3C//DTD SVG 1.1//EN" "http://www.w3.org/Graphics/SVG/1.1/DTD/svg11.dtd">
<svg version="1.1" xmlns="http://www.w3.org/2000/svg" xmlns:xlink="http://www.w3.org/1999/xlink" width="512" height="512" viewBox="0 0 512 512">
<g id="icomoon-ignore">
</g>
<path d="M353.94 242.326c18.749-22.271 30.060-51.004 30.060-82.326 0-70.58-57.421-128-128-128h-160v448h192c70.579 0 128-57.421 128-128 0-46.478-24.899-87.248-62.060-109.674zM192 96h50.75c27.984 0 50.75 28.71 50.75 64s-22.766 64-50.75 64h-50.75v-128zM271.5 416h-79.5v-128h79.5c29.225 0 53 28.71 53 64s-23.775 64-53 64z"></path>
</svg>
